<svg xmlns="http://www.w3.org/2000/svg" viewBox="0 0 32 32" >
	<g>
		<path fill="#fff" d="M29.001,1.999V0h-23C5.917,0.004,5.294-0.008,4.556,0.354C3.808,0.686,2.965,1.645,3,3
			c0,0.006,0.001,0.012,0.001,0.018V30c0,2,2,2,2,2h24V4h-2V1.999H29.001z M5.997,4c-0.013,0-0.05-0.001-0.146-0.018
			C5.674,3.955,5.417,3.869,5.272,3.743C5.136,3.609,5.017,3.5,5.001,3c0.033-0.647,0.193-0.686,0.448-0.857
			c0.129-0.065,0.288-0.106,0.403-0.125C5.97,1.997,5.999,2.005,6.001,1.999h19V4h-19C6,4,5.999,4,5.997,4z M27.001,30h-20V6h20V30z
			"/>
		<circle fill="#fff" cx="17.001" cy="14" r="4"/>
		<path fill="#fff" d="M25.001,22c0,0,0-2-2-2h-12c0,0-2,0-2,2v6h16V22z"/>
	</g>
</svg>
