<svg version="1.1" id="Layer_1" xmlns="http://www.w3.org/2000/svg" xmlns:xlink="http://www.w3.org/1999/xlink" x="0px" y="0px"
	 viewBox="0 0 512 512" style="enable-background:new 0 0 512 512;" xml:space="preserve">
<style type="text/css">
	.st0{fill:#fff;}
	.st1{clip-path:url(#SVGID_2_);fill:#fff;}
</style>
<g transform="translate(0,0)">
	<path class="st0" d="M102.6,26l90.1,345.8L481.8,395L391.8,49.2L102.6,26z M83.7,27.6C53.2,39.4,28,80.7,33.9,102.9l3.2,11.8
		c0.7-1.8,1.4-3.5,2.1-5.3c9.9-23.7,26.6-46.8,50.4-58.9L83.7,27.6L83.7,27.6z M128.6,46.5l247.8,21.6l80.9,305.2L208,353.2
		L128.6,46.5L128.6,46.5z M94.5,69.2c-16.7,10-29.9,28.1-38,47.4c-5.2,12.6-8,25.6-8.8,36.5l64.8,235.3c0.3-0.5,0.6-1.1,0.9-1.7
		c10.6-19.3,27.8-37.7,51.1-48.5L94.5,69.2L94.5,69.2z M169.4,356.7c-17.7,9.1-31.1,23.7-39.6,39c-4.5,8.1-7.3,16.4-8.7,23.8
		l11.7,42.4l1.6,0.1c-3.8-27.5,11.4-60.4,41.2-81L169.4,356.7L169.4,356.7z M195.8,390.7c-32.6,17.3-46.5,52.4-41.8,72.9l289.8,24.5
		c-5.3-7.8-8.6-17.8-8.6-28.3l-22.6-9.1l46.6-7.3l-13.6-13c5.6-6.9,13.7-13,24.8-17.7L195.8,390.7L195.8,390.7z"/>
</g>
<path class="st0" d="M322.4,177.6c4.9,21-6.8,36.7-26.1,35.1c-19.4-1.7-39-20-43.9-41.1c-4.9-21,6.8-36.7,26.1-35.1
	C297.8,138.2,317.5,156.5,322.4,177.6z"/>
<g>
	<defs>
		<polygon id="SVGID_1_" points="406.7,312.3 239.1,298 216.7,202.4 384.4,216.7 		"/>
	</defs>
	<clipPath id="SVGID_2_">
		<use xlink:href="#SVGID_1_"  style="overflow:visible;"/>
	</clipPath>
	<path class="st1" d="M373.6,309.5c-12.3-52.8-46.5-97.7-76.2-100.2c-29.8-2.5-43.9,38.2-31.5,91c12.3,52.8,46.5,97.7,76.2,100.2
		C371.8,403,385.9,362.3,373.6,309.5z"/>
</g>
</svg>
