<svg xmlns="http://www.w3.org/2000/svg" viewBox="0 0 1000 1000" enable-background="new 0 0 1000 1000" xml:space="preserve">
<g><path fill="#fff" d="M683.2,574.7c0-12.8-5.7-22.2-17.2-28.3l-158.5-75.7c18.2-11.4,33-28.1,44.4-50c11.4-21.9,17.2-45.9,17.2-72.2c0-18.8-3-36.7-9.1-53.5c-6.1-16.8-14.5-31.5-25.2-43.9c-10.8-12.4-23.4-22.4-37.8-29.8c-14.5-7.4-29.8-11.1-45.9-11.1s-31.5,3.7-45.9,11.1c-14.5,7.4-27.1,17.3-37.8,29.8c-10.8,12.4-19.3,27.1-25.7,43.9c-6.4,16.8-9.6,34.7-9.6,53.5c0,26.9,5.9,51.3,17.7,73.2c11.8,21.9,27.4,38.5,46.9,50l-160.5,74.7c-5.4,2-9.6,5.7-12.6,11.1c-3,5.4-4.5,11.1-4.5,17.2v127.2c0,8.7,2.5,16.1,7.6,22.2c5,6.1,11.3,9.1,18.7,9.1h410.8c7.4,0,13.8-3,19.2-9.1c5.4-6.1,8.1-13.5,8.1-22.2L683.2,574.7L683.2,574.7z M893.1,227.5v83.8h67.6c8.1,0,15,2.9,20.7,8.6c5.7,5.7,8.6,12.6,8.6,20.7v87.8c0,8.1-2.9,15-8.6,20.7c-5.7,5.7-12.6,8.6-20.7,8.6h-67.6v83.8h67.6c8.1,0,15,2.9,20.7,8.6c5.7,5.7,8.6,12.6,8.6,20.7v87.8c0,8.1-2.9,15-8.6,20.7c-5.7,5.7-12.6,8.6-20.7,8.6h-67.6v83.8h67.6c8.1,0,15,2.9,20.7,8.6c5.7,5.7,8.6,12.6,8.6,20.7v87.8c0,8.1-2.9,15-8.6,20.7c-5.7,5.7-12.6,8.6-20.7,8.6h-67.6v24.2c0,13.5-4.5,24.7-13.6,33.8c-9.1,9.1-20.4,13.6-33.8,13.6H57.4c-13.5,0-24.7-4.5-33.8-13.6c-9.1-9.1-13.6-20.4-13.6-33.8V57.9c0-13.5,4.5-24.7,13.6-33.8C32.7,15,44,10.5,57.4,10.5h788.2c13.5,0,24.7,4.5,33.8,13.6c9.1,9.1,13.6,20.4,13.6,33.8v23.2h67.6c8.1,0,15,2.9,20.7,8.6c5.7,5.7,8.6,12.6,8.6,20.7v87.8c0,8.1-2.9,15-8.6,20.7c-5.7,5.7-12.6,8.6-20.7,8.6H893.1L893.1,227.5z"/></g>
</svg>
