<?xml version="1.0" encoding="utf-8"?>
<!-- Generator: Adobe Illustrator 19.2.1, SVG Export Plug-In . SVG Version: 6.00 Build 0)  -->
<svg version="1.1" id="Layer_1" xmlns="http://www.w3.org/2000/svg" xmlns:xlink="http://www.w3.org/1999/xlink" x="0px" y="0px"
	 viewBox="0 0 512 512" style="enable-background:new 0 0 512 512;" xml:space="preserve">
<style type="text/css">
	.st0{fill:#FFFFFF;}
</style>
<path d="M0,0h512v512H0V0z"/>
<path class="st0" d="M263.3,18.5c-1.2,0-2.3,0.1-3.5,0.1c-32.8,0-59.6,33.9-59.6,75.9c0,21.3,7.1,40.5,18.1,54.3
	c-68.1,10.6-82.9,105.4-66.7,191.6h23.6l-1-105.3l18.7-0.2l1.2,126.7l8.8,132.9h46.9V318.8h18.7v175.6h44.3l11.5-154h0l1.1-105.5
	L344,235l-1.1,105.3h24.5c18.4-88.5-4.7-178.9-67.1-190.7c11.5-13.9,19-33.3,19-55.2c0-39.4-23.4-72-53.4-75.9
	c-0.5-0.1-1-0.1-1.5-0.1C264.1,18.5,263.7,18.5,263.3,18.5L263.3,18.5z"/>
</svg>
