<svg viewBox="0 0 512 512">
	<path d="M280.7,64.9c-5.2,0-11.6,1.4-18.7,6.2c-55.6,39-112.2,76.5-169.6,112.8c-10.2,6.6-9.8,16.6,1,22.3L222.2,274
		c5.4,2.8,22.4,2.1,32.6-4.6l169.8-110.2c10.2-6.6,9.8-16.6-1-22.3C379,113.4,337.8,91.8,293,68.1C293,68.1,288.2,65,280.7,64.9
		L280.7,64.9z M328.4,238.8l-65.7,42.7c-14.6,9.5-37.1,10.5-52.5,2.4l-34.8-18.3l-87.2,41.4c-11,5.2-10.7,13,0.7,17.4L210,370.9v0
		c11.4,4.4,29.5,3.7,40.5-1.5l167-79.2c11-5.2,10.7-13-0.7-17.4L328.4,238.8L328.4,238.8z M422,303.9l-165.4,78.4
		c-14.5,6.9-36.8,7.7-51.8,2l-121-46.5c-6.4,5-4.7,11.1,4.9,14.8L210,399.2h0c11.3,4.4,29.5,3.7,40.5-1.5l167-79.2
		C426.3,314.3,427.8,308.3,422,303.9L422,303.9z M422,332.2l-165.4,78.4c-14.5,6.9-36.8,7.7-51.8,2l-121-46.5
		c-6.4,5-4.7,11.1,4.9,14.8L210,427.5h0c11.3,4.4,29.5,3.7,40.5-1.5l167-79.2C426.3,342.6,427.8,336.6,422,332.2L422,332.2z
		 M422,360.5L256.6,439c-14.5,6.9-36.8,7.7-51.8,2l-121-46.5c-6.4,5-4.7,11.1,4.9,14.8L210,455.8v0c11.4,4.4,29.5,3.7,40.5-1.5
		l167-79.2C426.3,370.9,427.8,364.9,422,360.5L422,360.5z M418.1,390.7l-161.5,76.6c-14.5,6.9-36.8,7.7-51.8,2L87.9,424.3
		c-10.9,5.2-10.5,12.9,0.8,17.3L210,488.2h0c11.4,4.4,29.5,3.7,40.5-1.5l167-79.2C428,402.5,428.1,395.1,418.1,390.7L418.1,390.7z"
		/>
</svg>
