<svg viewBox="0 0 512 512">
<g transform="translate(0,20)">
	<path d="M141,52.4c-2,0.1-4,0.5-5.8,1.2L22.4,95c-4.9,1.8-9.2,5.8-11.4,10.5c-2.2,4.7-2.4,10.7-0.6,15.5l72.6,197.9
		c1.8,4.9,5.8,9.3,10.5,11.5c4.7,2.2,10.7,2.4,15.5,0.6l112.8-41.4c4.9-1.8,9.2-5.8,11.4-10.5l0-0.1c2.2-4.7,2.4-10.6,0.6-15.5
		L161.3,65.7c-1.8-4.9-5.8-9.2-10.5-11.4l-0.1,0c-2.4-1.1-5-1.7-7.7-1.8C142.3,52.4,141.7,52.4,141,52.4L141,52.4z M183.5,67.2
		L253,256.5c3.7,10.1,3.2,21.3-1.3,31.1c-4.5,9.8-12.8,17.4-22.9,21.1l-29.9,10.9l65.3,3c5.2,0.2,10.8-1.8,14.6-5.3
		c3.8-3.5,6.4-8.9,6.6-14.1l9.8-210.5c0.2-5.2-1.8-10.8-5.3-14.7c-3.5-3.8-8.9-6.4-14.1-6.6L183.5,67.2L183.5,67.2z M315.1,103.4
		l-9.4,200.8c-0.5,10.8-5.3,20.9-13.2,28.2c-8,7.3-18.5,11-29.3,10.5l-28.3-1.3l75.5,25.1c4.9,1.6,10.9,1.2,15.5-1.1
		c4.6-2.3,8.5-6.8,10.2-11.8l66.5-200c1.6-4.9,1.2-10.9-1.1-15.5c-2.3-4.6-6.8-8.6-11.8-10.2L315.1,103.4L315.1,103.4z M420,166
		l-64.6,194.3c-3.4,10.2-10.7,18.7-20.4,23.5l-0.1,0c-9.6,4.8-20.7,5.6-30.9,2.2l-22.2-7.4l47.1,40.3c3.9,3.4,9.6,5.2,14.8,4.8
		c5.2-0.4,10.5-3.1,13.8-7l136.9-160.3c3.4-3.9,5.2-9.6,4.8-14.8c-0.4-5.2-3.1-10.5-7.1-13.9L420,166L420,166z"/>
</g>
</svg>
