<svg xmlns="http://www.w3.org/2000/svg" viewBox="0 0 32 32">
<g>
	<path fill="#fff" d="M16,30c-3.7,0-7.3-1.5-9.9-4.1C1.8,21.6,0.8,15,3.5,9.6c0.3-0.5,0.9-0.7,1.3-0.4c0.5,0.3,0.7,0.9,0.4,1.3
		c-2.4,4.7-1.5,10.3,2.2,14C9.8,26.8,12.8,28,16,28c3.2,0,6.2-1.2,8.5-3.5S28,19.2,28,16c0-3.2-1.2-6.2-3.5-8.5S19.2,4,16,4
		S9.8,5.2,7.5,7.5c-0.4,0.4-1,0.4-1.4,0s-0.4-1,0-1.4C8.7,3.5,12.3,2,16,2s7.3,1.5,9.9,4.1C28.5,8.7,30,12.3,30,16
		c0,3.7-1.5,7.3-4.1,9.9C23.3,28.5,19.7,30,16,30z"/>
</g>
<g>
	<path fill="#fff" d="M16,22c-0.6,0-1-0.4-1-1V11c0-0.6,0.4-1,1-1s1,0.4,1,1v10C17,21.6,16.6,22,16,22z"/>
</g>
<g>
	<path fill="#fff" d="M21,17H11c-0.6,0-1-0.4-1-1s0.4-1,1-1h10c0.6,0,1,0.4,1,1S21.6,17,21,17z"/>
</g>
</svg>
