<svg viewBox="0 0 464.8 464.8">
<path d="M202.3,2c-43.7,5.7-84,23.3-117.2,50.6C71.5,63.8,59.1,76.6,48.2,90.8C10.3,140-6,201,2,262.6
	c8.1,61.5,39.6,116.3,88.8,154.1c47.9,36.8,107.4,53.4,167.5,46.7c10.3-1.1,17.6-10.4,16.5-20.6c-1.1-10.3-10.4-17.6-20.7-16.5
	c-50.4,5.7-100.3-8.3-140.6-39.2c-41.3-31.7-67.8-77.7-74.5-129.3c-6.8-51.6,7-102.8,38.7-144.1c9.2-12,19.6-22.7,31-32.1
	c27.9-22.9,61.7-37.7,98.4-42.5c51.6-6.8,102.8,7,144.1,38.7c41.3,31.7,67.8,77.7,74.5,129.3c6.5,49.4-5.9,98.4-34.8,138.7
	l-18.4-18.4c-5.1-5.1-9.7-3.4-10.4,3.8l-5.7,63.5c-0.6,7.1,4.7,12.4,11.8,11.8l63.5-5.8c7.1-0.6,8.8-5.3,3.7-10.4l-17.7-17.7
	c37-49,53-109.4,45.1-170.3C454.8,140.7,423.2,86,374,48.2C324.8,10.4,263.8-6,202.3,2z"/>
<path d="M223.3,81.2c-8.4,0-15.1,6.8-15.1,15.1V247L346,318.3c2.2,1.2,4.6,1.7,6.9,1.7c5.5,0,10.8-3,13.5-8.2
	c3.8-7.4,0.9-16.5-6.5-20.4l-121.5-62.8V96.3C238.4,87.9,231.6,81.2,223.3,81.2z"/>
</svg>
