<svg xmlns="http://www.w3.org/2000/svg" viewBox="0 0 1000 1000">
<g><path fill="#fff" d="M730.9,656.8H354.7c-11,0-19.9,8.9-19.9,19.9s8.9,19.9,19.9,19.9h376.2c11,0,19.9-8.9,19.9-19.9S741.9,656.8,730.9,656.8z"/><path fill="#fff" d="M730.9,533.8H354.7c-11,0-19.9,8.9-19.9,19.9c0,11,8.9,19.9,19.9,19.9h376.2c11,0,19.9-8.9,19.9-19.9C750.8,542.7,741.9,533.8,730.9,533.8z"/><path fill="#fff" d="M730.9,410.7H354.7c-11,0-19.9,8.9-19.9,19.9c0,11,8.9,19.9,19.9,19.9h376.2c11,0,19.9-8.9,19.9-19.9C750.8,419.6,741.9,410.7,730.9,410.7z"/><path fill="#fff" d="M354.7,327.4h169.8c11,0,19.9-8.9,19.9-19.9c0-11-8.9-19.9-19.9-19.9H354.7c-11,0-19.9,8.9-19.9,19.9C334.8,318.5,343.7,327.4,354.7,327.4z"/><path fill="#fff" d="M887.9,144.9L765.4,24.1C756.1,15,743.9,10,730.9,10l0,0H246c-27.1,0-49.1,22-49.1,49.1v781.7c0,27.1,22,49.1,49.1,49.1h607.4c27.1,0,49.2-22,49.2-49.1v-661C902.5,166.8,897.2,154.1,887.9,144.9z M846.5,159.9h-95.6l-0.1-94.3L846.5,159.9z M853.4,850.2H246c-5.1,0-9.3-4.2-9.3-9.3V59.1c0-5.1,4.2-9.3,9.3-9.3h465l0.1,130.1c0,11,8.9,19.9,19.9,19.9h131.7v641.1C862.8,846,858.5,850.2,853.4,850.2z"/><path fill="#fff" d="M782.1,920.1c-11,0-19.9,8.9-19.9,19.9c0,5.6-4.6,10.2-10.2,10.2H147.4c-5.6,0-10.2-4.6-10.2-10.2V154.8c0-5.6,4.6-10.1,10.2-10.1c11,0,19.9-8.9,19.9-19.9s-8.9-19.9-19.9-19.9c-27.5,0-49.9,22.4-49.9,49.9v785.3c0,27.5,22.4,49.9,49.9,49.9H752c27.5,0,49.9-22.4,49.9-49.9C802,929.1,793.1,920.1,782.1,920.1z"/></g>
</svg>
