<svg version="1.1" viewBox="0 0 455 455">
<g>
	<path d="M433.2,60.9c-0.5-1.6-1.9-3-3.6-3.5c-2.4-0.8-5.1,0.3-6.4,2.5c-7.1,12.2-18.5,20.9-32.1,24.5c-10.8,2.9-22.2,2.2-32.5-1.8
		l4.3-7.4c0.7-1.3,0.9-2.8,0.6-4.2c-0.4-1.4-1.3-2.6-2.6-3.3l-6.9-4l9.9-17c0.7-1.3,0.9-2.8,0.6-4.2c-0.4-1.4-1.3-2.6-2.6-3.3
		l-23.9-13.9c-2.6-1.5-6-0.6-7.5,2l-9.9,17l-6.9-4c-2.6-1.5-6-0.6-7.5,2l-5.6,9.7l-16.1-10.4c-2.5-1.6-5.7-1-7.4,1.4l-40.3,55.4
		c-1.2,1.6-1.4,3.7-0.5,5.5s2.6,3,4.6,3.2l26.7,2.1l-4.1,7.1c-0.7,1.3-0.9,2.8-0.6,4.2c0.4,1.4,1.3,2.6,2.6,3.3l6.9,4l-68.5,118.1
		l6.4,11l71.6-123.5l14.4,8.3l-76.4,131.8l6.4,11l79.6-137.2l6.9,4c0.9,0.5,1.8,0.7,2.8,0.7c1.9,0,3.7-1,4.8-2.7l4.3-7.4
		c19.9,16.2,25.5,44.7,12.3,67.4c-1.3,2.2-0.9,5,1,6.8c1,1,2.4,1.5,3.7,1.5c0.3,0,0.6,0,0.9-0.1c35-5.3,65.2-25.9,82.9-56.5
		C443,130.3,445.9,93.9,433.2,60.9z M337.2,37.6l14.4,8.3l-7.1,12.3l-14.4-8.3L337.2,37.6z M251.3,96.9l31.5-43.2l12.2,7.9
		l-21.5,37.1L251.3,96.9z M313.3,138.9L275.5,117l37.3-64.4l37.8,21.9L313.3,138.9z M415.8,155.4c-14.3,24.7-37.5,42.1-64.8,49.1
		c9.4-25.9,1.1-55.2-21.1-72.2L353,92.3c12.9,5.4,27.3,6.4,40.9,2.8c12.8-3.4,23.9-10.5,32.2-20.3
		C433.7,101.9,430.1,130.7,415.8,155.4z"/>
	<path d="M219.6,273.4l-60,103.4l-14.4-8.3L210,256.9l-6.4-11l-94.7,163.4c-0.7,1.3-0.9,2.8-0.6,4.2c0.4,1.4,1.3,2.6,2.6,3.3
		l23.9,13.9c0.9,0.5,1.8,0.7,2.8,0.7c1.9,0,3.7-1,4.8-2.7L226,284.4L219.6,273.4z M135.6,418.4l-14.4-8.3l8-13.8l14.4,8.3
		L135.6,418.4z M149.1,395l-14.4-8.3l5-8.7l14.4,8.3L149.1,395z"/>
</g>
<g>
	<path d="M237.8,108.2c5.9,18.4,9,37.8,9,57.6v1.8c3.5-5.8,6.9-11.5,10.4-17.3c-1-13.3-3.4-26.3-7-38.9
		C246.2,110,242.1,108.6,237.8,108.2z"/>
	<path d="M274.9,304.9c-11.2-16.3-17.1-35.4-17.1-55.1v-14.6c-4.2,4-7.9,11-11,16.3c0.3,21.4,6.9,42,19,59.7
		c8.9,13,13.9,27.9,14.6,43.5l-14.6,5.2v-19.2c0-1.7-0.8-3.3-2.1-4.3c-1.3-1-3-1.4-4.7-1.1l-33,7.5c-2.5,0.6-4.3,2.8-4.3,5.4v23.3
		l-32.4,6.1v-18.5c-4.3,2.8-8.2,6.1-11,10.3v14.7c0,1.6,0.7,3.2,2,4.2c1,0.8,2.2,1.3,3.5,1.3c0.3,0,0.7,0,1-0.1l43.4-8.1
		c2.6-0.5,4.5-2.8,4.5-5.4v-23.5l22-5v20.1c0,1.8,0.9,3.5,2.3,4.5c1.5,1,3.3,1.3,5,0.7l9-3.2V444h0h0H63.8v-74.3l9,3.2
		c1.7,0.6,3.6,0.4,5-0.7c1.5-1,2.3-2.7,2.3-4.5v-20.1l22,5v23.5c0,2.6,1.9,4.9,4.5,5.4l15.1,2.8c1.5-3.5,2.5-7.2,4.7-10.3l-13.2-2.5
		v-23.3c0-2.6-1.8-4.8-4.3-5.4l-33-7.5c-1.6-0.4-3.3,0-4.7,1.1c-1.3,1-2.1,2.6-2.1,4.3v19.2l-14.6-5.2c0.7-15.6,5.7-30.6,14.6-43.6
		c12.4-18.1,19-39.4,19-61.3v-84c0-61.2,29.6-118.3,79.4-153.6c29.9,21.2,52.5,50.3,65.8,83.4c2.7-2.9,5.9-5.3,8.3-8.6
		C226.9,52.7,202.5,22.6,170.6,1c-1.9-1.3-4.3-1.3-6.2,0c-54.7,37.1-87.3,98.8-87.3,164.8v84c0,19.8-5.9,38.8-17.1,55.1
		c-10.9,15.8-16.6,34.4-16.6,53.6c0,2.3,1.5,4.4,3.6,5.2l5.7,2.1v83.8c0,3,2.5,5.5,5.5,5.5h218.4c3,0,5.5-2.5,5.5-5.5v-83.8l5.7-2.1
		c2.2-0.8,3.6-2.9,3.6-5.2C291.6,339.3,285.8,320.7,274.9,304.9z"/>
	<path d="M134.1,200c11.6,0,21-9.4,21-21v-16.5c0-2.3-1.4-4.3-3.5-5.1l-31-12c-1.7-0.7-3.6-0.4-5.1,0.6c-1.5,1-2.4,2.7-2.4,4.5V179
		C113.1,190.6,122.6,200,134.1,200z M124.1,158.5l20,7.7V179c0,5.5-4.5,10-10,10l0,0c-5.5,0-10-4.5-10-10V158.5z"/>
	<path d="M200.9,200c11.6,0,21-9.4,21-21v-28.5c0-1.8-0.9-3.5-2.4-4.5c-1.5-1-3.4-1.2-5.1-0.6l-31,12c-2.1,0.8-3.5,2.9-3.5,5.1V179
		C179.9,190.6,189.3,200,200.9,200z M190.9,166.3l20-7.7V179c0,5.5-4.5,10-10,10s-10-4.5-10-10V166.3z"/>
</g>
</svg>
