<svg viewBox="0 0 1100 1100">
<path d="M478.1,764.6h155.8V642.7c0-32.9,15.4-63.7,56.6-90.9c40.8-27,155.3-81.5,155.3-224.8
	c0-143.6-120.3-242.4-221.1-263.4c-101.4-21-211-7.2-288.5,77.9C266.5,217.5,252,278.2,252,411.2h155.8v-31.1
	c0-70.5,8.2-145.7,109.6-166c55.2-11.2,107.3,6.3,138,36.2c35.3,34.6,35.3,111.7-20.7,150.6l-87.9,59.5
	c-51.3,33.2-68.5,69.7-68.5,123.5v180.7H478.1z"/>
<path d="M556.3,825.5c44.1,0,80.2,35.9,80.2,80.3c0,44.4-36.1,80.2-80.2,80.2c-44.5,0-80.9-35.9-80.9-80.2
	C475.5,861.5,511.6,825.5,556.3,825.5z"/>
</svg>
