<svg viewBox="0 0 1100 1100">
	<path fill="#fff" d="M549.1,4.9C248.6,4.9,5,248.3,5,548.8s243.6,544.3,544.1,544.3S1093,849.3,1093,548.8S849.5,4.9,549.1,4.9z
		 M549.3,970c-232.6,0-421.4-188.6-421.4-421.3c0-232.5,188.7-420.8,421.4-420.8c232.2,0,420.8,188.3,420.8,420.8
		C970,781.5,781.6,970,549.3,970z"/>
	<path fill="#fff" d="M502,710.5h103.2v-80.7c0-21.8,10.2-42.2,37.5-60.2c27-17.9,102.9-54,102.9-148.9
		c0-95.1-79.7-160.6-146.5-174.5c-67.2-13.9-139.8-4.8-191.1,51.6c-46.2,50.3-55.8,90.5-55.8,178.6h103.2v-20.6
		c0-46.7,5.4-96.5,72.6-110c36.6-7.4,71.1,4.2,91.4,24c23.4,22.9,23.4,74-13.7,99.8L547.5,509c-34,22-45.4,46.2-45.4,81.8v119.7H502
		z"/>
	<path fill="#fff" d="M553.8,750.9c29.2,0,53.1,23.8,53.1,53.2c0,29.4-23.9,53.1-53.1,53.1c-29.5,0-53.6-23.8-53.6-53.1
		C500.3,774.7,524.2,750.9,553.8,750.9z"/>
</svg>
