<svg xmlns="http://www.w3.org/2000/svg" viewBox="0 0 512 512">
<path fill="#000" d="M512,512H0L0,0l512,0V512z"/>
<path fill="#fff" d="M178.2,20.2c-40,0-79.9,15.2-110.4,45.7C7,126.7,7,225.7,67.8,286.6c58.7,58.7,152.7,60.8,214,6.4l15.8,15.8
	l13.2-13.2L295,279.8c54.4-61.2,52.3-155.3-6.4-214C258.2,35.4,218.2,20.2,178.2,20.2L178.2,20.2z M275.4,79.1
	c51.5,51.5,53.6,133.5,6.4,187.5l-0.2-0.2c-2,2.3-4.1,4.6-6.3,6.8c-2.2,2.2-4.6,4.4-6.9,6.4l0.2,0.2c-54,47.3-136,45.2-187.5-6.4
	c-53.7-53.7-53.7-140.6,0-194.3c26.9-26.9,62-40.3,97.2-40.3S248.5,52.2,275.4,79.1z M178.2,57.6c-30.3,0-60.6,11.6-83.8,34.8
	c-27,27-38.3,63.6-33.8,98.7c4.3-46.5,39.1-84.2,84.2-92.9c-2.7,1.8-5.3,3.9-7.7,6.3c-24.6,24.6-20.3,68.7,9.6,98.6
	s74,34.1,98.6,9.6c14-14,18.6-34.4,14.5-54.9c5.9,13.1,9.2,27.7,9.2,43c0,33.8-16.1,63.9-41,82.9c12.3-5.7,23.8-13.6,33.9-23.8
	c46.4-46.4,46.4-121.2,0-167.6C238.9,69.2,208.5,57.6,178.2,57.6L178.2,57.6z M335.1,297.7l-34.6,34.6l134.8,134.8l34.6-34.6
	L335.1,297.7L335.1,297.7z M472,456.8L458.8,470l16,16l13.2-13.2L472,456.8L472,456.8z"/>
</svg>
