<svg viewBox="0 0 1280 1280">
<style type="text/css">
	.st0{opacity:0.4;}
	.st1{fill:#fff;}
</style>
<g transform="translate(200.000000,1280.000000) scale(0.100000,-0.100000)" class="st0">
	<path class="st1" d="M4382,12789c-759-73-1589-348-2390-791c-725-401-1269-840-1631-1317c-205-271-275-402-332-626
		c-28-109-33-318-10-400c49-177,170-298,358-359c50-17,57-24,144-143c81-113,96-138,129-239c52-155,95-231,209-373
		c110-138,142-194,149-261c5-58-13-97-78-165c-107-111-261-450-324-714c-90-369-44-673,135-895c195-243,503-393,949-463
		c166-26,750-26,965,0c719,87,1351,256,2028,544c62,27,111,42,116,37c6-7,1867-3594,2570-4954c95-184,130-232,405-550
		C8124,715,8769,6,8778,15c2,2-10,45-26,97c-56,172-129,435-232,838c-170,664-261,963-329,1092c-21,40-193,370-381,733
		c-189,363-558,1072-820,1575c-678,1299-1343,2576-1373,2636l-26,50l152,89c275,161,668,435,937,653c427,347,773,722,1020,1107
		c85,132,221,398,259,508c71,202,96,442,67,622c-35,213-111,369-246,505c-279,283-726,430-1306,430h-182l-48,58
		c-27,31-94,107-149,167c-226,248-313,367-369,504l-31,76l3,211c3,246-9,329-63,442c-65,137-175,220-391,295
		C5002,12787,4687,12819,4382,12789z"/>
</g>
<path class="st1" d="M639.1,0.4C286.2,0.4,0,286.5,0,639.5s286.1,639.1,639.1,639.1c352.9,0,639.1-286.1,639.1-639.1
	S992,0.4,639.1,0.4z M170.4,639.4c0-103.1,33.9-198.3,90.6-275.8l653.8,653.9c-77.5,56.7-172.6,90.6-275.8,90.6
	C380.7,1108.1,170.4,897.9,170.4,639.4z M1026.3,903L375.5,252.2c75.2-51.3,165.9-81.5,263.6-81.5c258.4,0,468.7,210.2,468.7,468.7
	C1107.7,737.1,1077.6,827.9,1026.3,903z"/>
</svg>
