<svg xmlns="http://www.w3.org/2000/svg" xmlns:xlink="http://www.w3.org/1999/xlink" version="1.1" x="0px" y="0px" viewBox="-5 -5 110 110" enable-background="new 0 0 100 100" xml:space="preserve"><path fill="#fff" d="M2642.125,860.771H2653c6.627,0,12-5.372,12-12v-6c0-6.627-5.373-12-12-12h-268.667c-6.628,0-12,5.373-12,12  v6c0,6.628,5.372,12,12,12h16.458c3.079,25.7,16.801,111.144,65.382,140.796c-51.51,31.439-63.829,125.593-65.827,144.757h-16.013  c-6.628,0-12,5.373-12,12v6c0,6.627,5.372,12,12,12H2653c6.627,0,12-5.373,12-12v-6c0-6.627-5.373-12-12-12h-10.43  c-1.998-19.164-14.317-113.316-65.827-144.757C2625.324,971.915,2639.046,886.473,2642.125,860.771z M2540.113,989.812l0.031,11.755  l-0.031,11.755c27.759,0.076,49.712,22.431,65.249,66.443c9.702,27.487,13.732,55.407,15.054,66.559H2422.5  c1.32-11.15,5.352-39.07,15.054-66.559c15.537-44.014,37.49-66.367,65.249-66.443l-0.031-11.755l0.031-11.755  c-27.759-0.076-49.712-22.432-65.249-66.444c-8.706-24.663-12.843-49.661-14.556-62.596h196.92  c-1.713,12.935-5.85,37.933-14.556,62.596C2589.825,967.382,2567.872,989.736,2540.113,989.812z"/><g><path fill="#fff" d="M2439,1134.805c0,0,32.016-52.412,82.008-52.412s76.992,52.412,76.992,52.412H2439z"/></g><g><path fill="#fff" d="M2456.887,944.14h129.144c0,0-12.029,40.665-66.363,40.665   C2474.093,984.805,2456.887,944.14,2456.887,944.14z"/></g><g><circle fill="#fff" cx="2521.49" cy="998.17" r="7.482"/></g><g><circle fill="#fff" cx="2521.49" cy="1021.355" r="7.482"/></g><g><circle fill="#fff" cx="2521.49" cy="1044.541" r="7.482"/></g><g><circle fill="#fff" cx="2521.49" cy="1067.727" r="7.482"/></g><path fill="#fff" d="M81.543,92.197h-6.028c0-0.004,0-0.007,0-0.009h-45.8c0,0.002,0,0.005,0,0.009H23.14  c-3.427,0-6.205,2.777-6.205,6.205v0.848H87.75v-0.848C87.75,94.975,84.971,92.197,81.543,92.197z"/><path fill="#fff" d="M59.738,90.773h15.684c-0.793-4.81-4.376-5.809-4.376-5.809c-16.222-16.221,0-27.209,0-27.209  c0.784,0,1.436-0.249,1.979-0.644l5.578,4.904c0.413,0.364,0.927,0.543,1.437,0.543c0.604,0,1.205-0.25,1.636-0.739  c0.794-0.903,0.704-2.278-0.198-3.072l-5.573-4.902H59.738V90.773z"/><path fill="#fff" d="M29.807,90.773h15.859V53.846H30.122c0.334,1.024,0.883,2.217,1.77,3.013l-4.81,5.528  c-0.789,0.906-0.693,2.281,0.213,3.07c0.413,0.359,0.921,0.535,1.429,0.535c0.608,0,1.212-0.254,1.643-0.748l5.393-6.2  c3.641,3.347,11.382,12.964-1.575,25.921C34.184,84.965,30.601,85.964,29.807,90.773z"/><rect x="46.21" y="53.846" fill="#fff" width="12.983" height="36.928"/><path fill="#fff" d="M84.485,46.208h-2.738c-0.38-0.653-0.962-1.176-1.665-1.471h5.135V42.47H62.966l-3.041-2.675  c0.767-1.31,1.209-2.834,1.209-4.462c0-1.531-0.388-2.97-1.073-4.225l18.171-20.89c0.789-0.907,0.694-2.282-0.214-3.071  c-0.906-0.788-2.281-0.693-3.07,0.214L59.193,25.47V3.77H60.5V1.185H44.453V3.77h1.484v23.726L26.71,10.587  c-0.902-0.793-2.278-0.706-3.072,0.197c-0.793,0.903-0.706,2.278,0.197,3.073l20.368,17.911c-0.481,1.091-0.75,2.295-0.75,3.565  c0,2.205,0.809,4.22,2.144,5.769l-1.19,1.369H3.209v2.268h22.888c-0.703,0.295-1.287,0.818-1.666,1.471H20.2  c-1.803,0-3.265,1.462-3.265,3.266v0.446c0,1.803,1.462,3.266,3.265,3.266h9.724h15.742h0.544h12.983h0.545h15.566h9.181  c1.803,0,3.265-1.463,3.265-3.266v-0.446C87.75,47.671,86.288,46.208,84.485,46.208z M41.153,46.208H30.468  c-0.379-0.653-0.963-1.176-1.667-1.471h13.633L41.153,46.208z M52.294,38.821c-1.927,0-3.488-1.562-3.488-3.488  s1.562-3.489,3.488-3.489c1.926,0,3.488,1.562,3.488,3.489S54.22,38.821,52.294,38.821z M59.193,46.208V44.95l1.433,1.259H59.193z   M75.711,46.208h-8.492l-1.674-1.471h11.831C76.673,45.033,76.091,45.555,75.711,46.208z"/></svg>
