<svg viewBox="0 0 1280 1280">
<g transform="translate(0.000000,1280.000000) scale(0.100000,-0.100000)">
	<path d="M5620.1,10825.5c-166-57.6-250.5-121.4-300.4-226.7c-41.5-86.8-50.7-150.6-48.4-339.6l2.3-162.1l-23.8-58.4
		c-43-105.3-109.9-196.7-283.5-387.3c-42.3-46.1-93.7-104.5-114.5-128.3l-36.9-44.6H4675c-445.7,0-789.1-113-1003.5-330.4
		c-103.7-104.5-162.1-224.4-189-388c-22.3-138.3-3.1-322.7,51.5-477.9c29.2-84.5,133.7-288.9,199-390.3
		c189.8-295.8,455.7-584,783.7-850.6c206.7-167.5,508.7-378,720-501.8l116.8-68.4l-20-38.4c-23.1-46.1-534-1027.3-1055-2025.5
		c-201.3-386.5-484.8-931.3-630.1-1210.2c-144.5-278.9-276.6-532.5-292.8-563.2c-52.2-99.1-122.2-328.9-252.8-839.1
		c-79.1-309.7-135.2-511.7-178.3-643.9c-12.3-40-21.5-73-20-74.5c6.9-6.9,502.5,537.9,771.5,849.1
		c211.3,244.3,238.2,281.2,311.2,422.6c540.2,1045,1970.1,3801.2,1974.7,3806.6c3.8,3.8,41.5-7.7,89.1-28.4
		c520.2-221.3,1005.8-351.1,1558.3-418c165.2-20,613.9-20,741.5,0c342.7,53.8,579.4,169,729.2,355.8
		c137.5,170.6,172.9,404.2,103.7,687.7c-48.4,202.9-166.7,463.3-249,548.6c-49.9,52.2-63.8,82.2-59.9,126.8
		c5.4,51.5,30,94.5,114.5,200.5c87.6,109.1,120.6,167.5,160.6,286.6c25.4,77.6,36.9,96.8,99.1,183.6
		c66.8,91.4,72.2,96.8,110.6,109.9c144.5,46.9,237.4,139.8,275.1,275.8c17.7,63,13.8,223.6-7.7,307.4
		c-43.8,172.1-97.6,272.8-255.1,481c-278.2,366.5-696.2,703.8-1253.2,1012c-615.5,340.4-1253.2,551.7-1836.4,607.8
		C6048.1,10914.6,5806,10890,5620.1,10825.5z"/>
</g>
</svg>
