<svg viewBox="0 0 1280 1280">
<g transform="translate(0.000000,1280.000000) scale(0.100000,-0.100000)"
fill="#fff" stroke="none">
<path d="M4382 12789 c-759 -73 -1589 -348 -2390 -791 -725 -401 -1269 -840
-1631 -1317 -205 -271 -275 -402 -332 -626 -28 -109 -33 -318 -10 -400 49
-177 170 -298 358 -359 50 -17 57 -24 144 -143 81 -113 96 -138 129 -239 52
-155 95 -231 209 -373 110 -138 142 -194 149 -261 5 -58 -13 -97 -78 -165
-107 -111 -261 -450 -324 -714 -90 -369 -44 -673 135 -895 195 -243 503 -393
949 -463 166 -26 750 -26 965 0 719 87 1351 256 2028 544 62 27 111 42 116 37
6 -7 1867 -3594 2570 -4954 95 -184 130 -232 405 -550 350 -405 995 -1114
1004 -1105 2 2 -10 45 -26 97 -56 172 -129 435 -232 838 -170 664 -261 963
-329 1092 -21 40 -193 370 -381 733 -189 363 -558 1072 -820 1575 -678 1299
-1343 2576 -1373 2636 l-26 50 152 89 c275 161 668 435 937 653 427 347 773
722 1020 1107 85 132 221 398 259 508 71 202 96 442 67 622 -35 213 -111 369
-246 505 -279 283 -726 430 -1306 430 l-182 0 -48 58 c-27 31 -94 107 -149
167 -226 248 -313 367 -369 504 l-31 76 3 211 c3 246 -9 329 -63 442 -65 137
-175 220 -391 295 -242 84 -557 116 -862 86z"/>
</g>
</svg>
