<?xml version="1.0" encoding="utf-8"?>
<!-- Generator: Adobe Illustrator 19.2.1, SVG Export Plug-In . SVG Version: 6.00 Build 0)  -->
<svg version="1.1" id="Layer_1" xmlns="http://www.w3.org/2000/svg" xmlns:xlink="http://www.w3.org/1999/xlink" x="0px" y="0px"
	 viewBox="0 0 512 512" style="enable-background:new 0 0 512 512;" xml:space="preserve">
<style type="text/css">
	.st0{fill:#FFFFFF;}
</style>
<path d="M0,0h512v512H0V0z"/>
<path class="st0" d="M472.7,21.9C396.8,21.7,319.1,33.4,250,63.3c4.8,12.1,8.8,26.1,12.1,41.8c-18.6-14-41.9-18.5-62.5-15.6
	c-42.4,26.1-79.9,60.8-109.5,106c23.1,7.1,47.3,20.9,66.8,40.2c-29.2-6.5-63.2-5.4-91,2.8c-12.6,26.3-22.9,55.5-30.6,87.7
	c118-28.1,119.7,3.2,46.5,128.8c15.5,11.6,38.7,12.6,56.8-1.4C144,247.5,233.3,301,254.2,326.9c13.1-37.2,31.9-75.7,57.7-116
	c-15.9-13.4-36-22.8-58.5-29.7c23.3-4.8,46.7-10,68-10.3c5.9-0.1,11.7,0.2,17.3,1.1c16.1-22,34.3-44.6,54.8-67.8
	c-11.5-5.8-23.4-10.5-35-13.7c15.7-5.3,32.3-7.6,48.5-7.5c1.8,0,3.7,0.1,5.5,0.2C430.8,63.3,450.8,42.9,472.7,21.9L472.7,21.9z
	 M412.4,45.2c-120.1,60-207.8,149.4-258.4,262.5C179.1,170.9,284.3,79.4,412.4,45.2z"/>
<path class="st0" d="M407.6,196.9c-0.6,0-1.3,0.1-1.9,0.1c-17.8,0-32.3,18.4-32.3,41.1c0,11.5,3.8,21.9,9.8,29.4
	c-36.9,5.7-44.9,57.1-36.1,103.8h12.8l-0.6-57.1l10.1-0.1l0.7,68.7l4.7,72h25.4v-95.2h10.1v95.2h24l6.2-83.5h0l0.6-57.2l10.1,0.1
	l-0.6,57.1h13.3c10-47.9-2.6-97-36.4-103.3c6.2-7.5,10.3-18.1,10.3-29.9c0-21.3-12.7-39-28.9-41.1c-0.3,0-0.5-0.1-0.8-0.1
	C408,196.9,407.8,196.9,407.6,196.9L407.6,196.9z"/>
</svg>
