<svg version="1.1" id="Layer_1" xmlns="http://www.w3.org/2000/svg" viewBox="0 0 512 512">
<path fill="#fff" d="M292.4,56L120.5,70.7l174.5,122.6l174.2-26L292.4,56L292.4,56z M89.7,82.8L26,319.3l177.3,152.5l72.3-258.4
	L89.7,82.8L89.7,82.8z M284.4,99.9c9.7,0.2,21,2.9,30.2,7.3c15.5,7.4,20.7,17.2,11.7,21.8c0,0,0,0,0,0c-9,4.7-28.8,2.5-44.3-4.9
	c0,0,0,0,0,0c-15.5-7.4-20.7-17.2-11.7-21.8C273.6,100.7,278.5,99.8,284.4,99.9L284.4,99.9z M487.8,192.4l-185.4,27.7l-71.8,256.6
	l178.4-48.7L487.8,192.4z M209,209c2.2,0,4.4,0.5,6.5,1.4c13.1,5.9,22,27.6,19.7,48.6c0,0,0,0,0,0c-2.2,21-14.6,33.3-27.8,27.4
	c-13.1-5.9-22-27.6-19.7-48.6c0,0,0,0,0,0C189.5,220.8,198.2,208.9,209,209z M445.3,226.8c5-0.1,9.2,2.1,11.8,6.3
	c6.4,10.4,2.2,29.9-9.5,43.6c-11.6,13.7-26.2,16.3-32.6,5.9c-6.4-10.4-2.2-29.9,9.5-43.6C430.8,231.5,438.5,227,445.3,226.8
	L445.3,226.8z M339.9,243.2c5-0.1,9.1,2.1,11.8,6.3c6.4,10.4,2.2,29.9-9.5,43.6c-11.6,13.7-26.2,16.3-32.6,5.9
	c-6.4-10.4-2.2-29.9,9.5-43.6C325.5,247.9,333.2,243.4,339.9,243.2L339.9,243.2z M73.1,263.6c2.2,0,4.4,0.5,6.5,1.4
	c13.1,5.9,22,27.6,19.7,48.6c0,0,0,0,0,0c-2.2,21-14.6,33.3-27.8,27.4c0,0,0,0,0,0c-13.1-5.9-22-27.6-19.7-48.6c0,0,0,0,0,0
	C53.6,275.4,62.3,263.5,73.1,263.6L73.1,263.6z M398.6,356.9c5-0.1,9.1,2.1,11.8,6.3c6.4,10.4,2.2,29.9-9.5,43.6
	c-11.6,13.7-26.2,16.3-32.6,5.9c-6.4-10.4-2.2-29.9,9.5-43.6C384.2,361.6,391.9,357.1,398.6,356.9L398.6,356.9z M290.8,386.8
	c5-0.1,9.1,2.1,11.8,6.3c6.4,10.4,2.2,29.9-9.5,43.6c-11.6,13.7-26.2,16.3-32.6,5.9c0,0,0,0,0,0c-6.4-10.4-2.2-29.9,9.5-43.6
	C276.3,391.5,284,387,290.8,386.8L290.8,386.8z"/>
</svg>
