<?xml version="1.0" encoding="utf-8"?>
<!-- Generator: Adobe Illustrator 19.2.1, SVG Export Plug-In . SVG Version: 6.00 Build 0)  -->
<svg version="1.1" id="Layer_1" xmlns="http://www.w3.org/2000/svg" xmlns:xlink="http://www.w3.org/1999/xlink" x="0px" y="0px"
	 viewBox="0 0 420 420">
<style type="text/css">
	.st0{fill:#fff;}
</style>
<path class="st0" d="M376.4,40.2c4.3,3.1,6.1,7.3,5.3,12.6l-50.3,301.6c-0.6,3.8-2.9,7-6.3,8.8c-1.9,1.1-4,1.6-6.1,1.6
	c-1.6,0-3.2-0.4-4.7-1l-88.9-36.3l-47.5,57.9c-2.3,3-5.9,4.7-9.6,4.5c-1.5,0-3-0.2-4.3-0.8c-4.9-1.8-8.2-6.5-8.2-11.8v-68.5
	l169.6-207.9L115.4,282.5l-77.6-31.8c-4.8-1.8-7.5-5.4-7.9-10.8c-0.3-5.2,1.8-9.1,6.3-11.6L363,39.8c1.9-1.2,4.1-1.8,6.3-1.8
	C371.8,38,374.3,38.7,376.4,40.2z"/>
</svg>
