<svg xmlns="http://www.w3.org/2000/svg" viewBox="0 0 420 420"><path fill="#fff" d="M454.2143,48.6474q7.7318,5.6231,6.326,14.995l-59.98,359.88a14.7686,14.7686,0,0,1-7.4975,10.5434A14.38,14.38,0,0,1,385.8,435.94a15.7654,15.7654,0,0,1-5.6231-1.1715L274.04,391.4235l-56.7,69.1175A13.7968,13.7968,0,0,1,205.86,465.93a12.6663,12.6663,0,0,1-5.1545-.9372,14.9967,14.9967,0,0,1-9.84-14.0578v-81.77l202.4324-248.12L142.834,337.77,50.2868,299.8135q-8.669-3.28-9.3719-12.8863-0.4686-9.3719,7.4975-13.8235l389.87-224.9248A14.3311,14.3311,0,0,1,445.78,46.07,14.543,14.543,0,0,1,454.2143,48.6474Z" transform="translate(-40.8889 -46.0701)"/></svg>
