<svg version="1.1" viewBox="0 0 507.5 507.5">
<g>
  <path
	d="M25.5,252.4c0,43.4,33.1,76.5,76.5,76.5c20.4,0,38.2-7.6,51-20.4l181.1,107.1c-2.6,7.6-2.6,12.8-2.6,17.9
	   c0,40.8,33.1,74,74,74s73.9-33.2,73.9-74s-33.1-73.9-73.9-73.9c-20.4,0-38.2,7.6-51,20.4l-181-107.1c2.5-5.1,2.5-12.8,2.5-17.8
	   c0-5.1,0-12.8-2.5-17.9l181-104.6c12.8,12.8,30.6,20.4,51,20.4c43.4,0,76.5-33.2,76.5-76.5S448.8,0,405.5,0S329,33.2,329,76.5
	   c0,5.1,0,12.8,2.6,17.8L150.5,198.9c-12.8-12.8-30.6-20.4-51-20.4C56.1,178.5,25.5,209.1,25.5,252.4z"/>
</g>
</svg>
