<svg viewBox="0 0 512 512">
<path d="M228.8,35.1c29.2-0.2,72.2,8.8,100.7,20.5l0.6,0.2l0.6,0.2c13.8,3.6,25.8,2.9,36.7-0.2
	c10.5-2.9,19.9-7.8,30.2-12.6c6.1-1.3,10.7-0.5,14.9,1.8c4.4,2.3,8.6,6.6,12.4,12.8c7.5,12.4,12.5,32.3,14.2,53.3
	c1.7,21,0.3,43.2-3.4,60.7c-3.8,17.5-11.2,29.3-14.7,31.1l0,0l0,0c-11.3,5.8-18.3,9.6-24.1,14.3s-9.6,10-13.5,16.9
	c-7.9,13.6-18.3,35.3-53.8,85.1c-16.5,13.8-38.7,34.2-58.8,55.3c-20.5,21.5-38.6,43-46.3,61.2l-0.6,1.3l-0.1,1.4
	c-1.3,15.8-6.1,25.9-11.4,31.5c-5.3,5.7-11,7.4-16.3,6.7c-10.6-1.3-22.1-12.5-17-37.5l0.1-0.3l0-0.4c4.9-39.5,33.2-88.8,59.1-130.4
	l10.9-17.6l-20.3,4c-34.8,6.9-70.1,4.9-105.9-0.1c-11.3-1.6-25-3.8-34.9-8.3c-10-4.5-15.4-9.4-15.7-19.5c-0.2-7.2,1.1-8.8,5.1-11.6
	c4-2.8,12-5.6,22.3-8.8l27.6-8.6l-27.6-8.6c-17.2-5.3-24.2-16.4-24.2-24c0-8.3,10.1-20.7,24.5-24.7l24.9-7.1l-24-9.9
	c-13.3-5.5-16.6-12.4-15.9-22.3c0.2-2.6,5-19.7,33.6-23.8l29.1-4.2l-26.5-12.8c-9.3-4.5-13.4-8.6-15.4-11.7c-2-3.2-2.3-5.9-2.3-9.9
	c0.1-4.9,1.8-7.4,8.3-11.7s17.2-8.8,30.6-14.1C171.6,41.3,204.2,35.3,228.8,35.1L228.8,35.1z"/>
</svg>
