<svg viewBox="0 0 400 400">
	<path d="M126.3,355.3c145.7,0,225.4-120.8,225.4-225.4c0-3.4,0-6.8-0.2-10.2c15.4-11.1,28.9-25.2,39.5-41.1
		c-14.2,6.3-29.5,10.5-45.6,12.5c16.4-9.7,28.9-25.3,34.9-43.9c-15.3,9.1-32.3,15.6-50.4,19.2c-14.5-15.4-35.1-25-57.8-25
		c-43.7,0-79.2,35.5-79.2,79.2c0,6.2,0.8,12.2,2,18.1c-65.8-3.2-124.2-34.9-163.3-82.8c-6.8,11.7-10.7,25.3-10.7,39.9
		c0,27.5,14.1,51.7,35.2,66c-13-0.5-25.2-4-35.8-9.9c0,0.3,0,0.6,0,1.1c0,38.3,27.3,70.4,63.5,77.7c-6.6,1.9-13.6,2.8-20.9,2.8
		c-5.1,0-10-0.5-14.8-1.4c10,31.5,39.4,54.4,74,55c-27.2,21.3-61.3,34-98.4,34c-6.3,0-12.7-0.3-18.8-1.1
		C39.9,342.1,81.6,355.3,126.3,355.3"/>
</svg>
