<svg viewBox="0 0 612 612">
<g>
	<path d="M522.6,243.2c-13,0-23.9,4.3-32.5,10.8l0,0c0-30.4-23.9-54.2-54.2-54.2c-13,0-23.9,4.3-32.5,10.8V58.7
		c0-30.4-23.9-54.2-54.2-54.2c-23.9,0-43.4,15.2-49.9,34.7c-8.7-8.7-21.7-13-36.9-13c-30.4,0-54.2,23.9-54.2,54.2v193.1
		c-43.4-39.1-91.1-69.4-121.5-39.1c-43.4,43.4,47.7,128,117.2,256C253.5,579.5,323,612,392.4,612c102,0,184.4-82.4,184.4-184.4
		V297.4C576.8,267,552.9,243.2,522.6,243.2z M555.1,345.1v82.4c0,89-73.8,162.7-162.7,162.7c-82.4,0-130.2-45.6-169.2-108.5
		C140.7,338.6,80,273.5,101.7,249.7c23.9-23.9,82.4,28.2,128,75.9V80.4c0-17.4,15.2-32.5,32.5-32.5c17.4,0,32.5,15.2,32.5,32.5
		v227.8h21.7V58.7c0-17.4,15.2-32.5,32.5-32.5c17.4,0,32.5,15.2,32.5,32.5v227.8h21.7V254c0-17.4,15.2-32.5,32.5-32.5
		c17.4,0,32.5,15.2,32.5,32.5v54.2H490v-10.8c0-17.4,15.2-32.5,32.5-32.5c17.4,0,32.5,15.2,32.5,32.5L555.1,345.1L555.1,345.1z"/>
</g>
</svg>
