<svg viewBox="0 0 512 512">
<g transform="translate(0,0)">
	<path d="M256,41c-28.2,0-58.4,18.2-81.2,44.9c-3.1,3.7-6.1,7.5-8.9,11.4L208,69.2l23.1,15.4c0.5-6.9,2.6-13.3,6.1-18.6
		c4.1-6.1,10.7-11,18.8-11c8.1,0,14.7,4.9,18.8,11c3.5,5.3,5.6,11.6,6.1,18.6L304,69.2l42.1,28.1c-2.8-3.9-5.8-7.7-8.9-11.4
		C314.4,59.2,284.2,41,256,41z M256,73c-0.8,0-2.1,0.4-3.8,3c-1.7,2.6-3.2,7-3.2,12c0,3.8,0.9,7.3,2,9.9l5,3.3l5-3.3
		c1.2-2.6,2-6,2-9.9c0-5-1.5-9.4-3.2-12C258.1,73.4,256.8,73,256,73z M208,90.8l-28.6,19.1l5.3,1.1c16.9,2.1,36.5,3.4,56.6,3.9
		c-1.4-1.3-2.6-2.7-3.7-4.3L208,90.8L208,90.8z M304,90.8l-29.6,19.7c-1.1,1.5-2.3,3-3.7,4.3c20.1-0.4,39.7-1.8,56.6-3.9l5.3-1.1
		L304,90.8z M148.5,122.1c-4.6,8.8-10.4,25.4-15,45.7c-5.5,24.2-10.1,53.4-13.3,81.4c-2.7,23.8-4.4,46.5-4.8,64.8
		c6.9-23.3,15.3-51.5,26.1-79.9c14.9-39.4,33.5-78.5,59.8-101.4L148.5,122.1L148.5,122.1z M363.5,122.1l-52.8,10.6
		c26.3,22.9,44.8,62.1,59.8,101.4c10.8,28.4,19.3,56.7,26.1,79.9c-0.5-18.3-2.1-41-4.8-64.8c-3.2-28-7.8-57.2-13.3-81.4
		C373.8,147.5,368.1,130.8,363.5,122.1L363.5,122.1z M234.7,132.7l-6.7,3.3c-6.4,3.2-12.6,8-18.6,14.1c6.7,0.8,13,2.1,18.6,3.9
		c8.7,2.7,16.8,5.4,20.4,14.8l-16.8,6.4c0.7,1.9-2.3-1.9-8.9-4c-6.7-2.1-15.9-3.6-25.3-4c-0.6,0-1.3,0-1.9,0
		c-3.2,4.6-6.4,9.4-9.4,14.6c4.8-1.2,9.4-1.8,14-1.8c12,0,24,4,40,12c0,16-16,32-32,32c-9.9,0-25.8-6.1-36.6-14.5
		c-4.7,10-9,20.4-13,31c-2.3,6.1-4.5,12.3-6.7,18.4c9.2,24.8,21.8,46.2,35.4,63.6c13.5,17.3,27.9,30.8,40.6,39.7
		C240.3,371,251.8,375,256,375s15.7-4,28.3-12.9c12.7-8.9,27.1-22.3,40.6-39.7c13.6-17.5,26.2-38.8,35.4-63.6
		c-2.1-6.1-4.3-12.3-6.7-18.4c-4-10.6-8.4-21-13-31c-10.8,8.4-26.7,14.5-36.6,14.5c-16,0-32-16-32-32c16-8,28-12,40-12
		c4.6,0,9.2,0.6,14,1.8c-3-5.1-6.2-10-9.4-14.5c-9.2,0.4-18.2,1.9-24.7,4c-6.7,2.1-9.6,5.9-8.9,4l-16.8-6.4
		c3.6-9.3,11.7-12,20.4-14.8c5-1.5,10.5-2.7,16.3-3.6c-6.1-6.2-12.4-11.2-18.9-14.4l-6.7-3.3c-7,0.2-14.1,0.3-21.3,0.3
		C248.9,133,241.7,132.9,234.7,132.7L234.7,132.7z M200,192c-4.4,0-8,3.6-8,8s3.6,8,8,8s8-3.6,8-8S204.4,192,200,192z M311.6,192
		c-4.4,0-8,3.6-8,8s3.6,8,8,8s8-3.6,8-8S316.1,192,311.6,192z M240,256l16,4.1l16-4.1c0,16-16,16-16,16S240,272,240,256z
		 M143.2,284.9c-4.5,14.2-8.3,27.1-11.8,39.2c-9.4,62.5-29.6,99.1-52.7,146.4c4.7-0.5,9.6-1.3,14.5-2.9c10.3-3.4,19.9-9.6,26.8-23.5
		l8.1-16.1L136,444c7.8,15.7,12.1,21.1,14.3,22.8c1.1,0.8,1.8,1.1,3.9,1.8c0.2,0.1,0.7,0.2,1,0.3c12.9-29.8,25.8-82,27.5-123.4
		c-3.3-3.8-6.6-7.7-9.9-11.9C162,319.6,151.8,303.3,143.2,284.9L143.2,284.9z M368.8,284.9c-8.6,18.4-18.9,34.7-29.7,48.7
		c-3.3,4.2-6.6,8.1-9.9,11.9c1.8,42.4,15.2,96.1,28.4,125.5c0.9-0.1,1.7-0.1,2.2-0.2c1.1-0.2,0.9-0.1,1.8-1
		c1.9-1.9,6.3-9.7,14.3-25.7l8-16.1l8,16.1c6.9,13.9,16.5,20.1,26.8,23.5c5.3,1.8,10.7,2.6,15.9,3.1C417.1,424.7,396,391,384.2,336
		C379.8,321.4,374.8,303.8,368.8,284.9L368.8,284.9z M246,298c0,0,10,0,10,4.2c0-4.2,10-4.2,10-4.2c10,0,20,10,30,10
		c0,0-18.1,18.6-30,20c-3.5,0.4-10-3.7-10-3.7s-6.5,4.1-10,3.7c-11.9-1.4-30-20-30-20C226,308,236,298,246,298z M199.5,362.5
		c-0.4,4.7-1,9.4-1.6,14.2l1.6,2.3l25.9,38.9l24.2-24.2l1-1c-10.2-1.5-21.2-7.1-33.4-15.7C211.5,372.8,205.6,368,199.5,362.5
		L199.5,362.5z M312.5,362.5c-6,5.5-12,10.3-17.8,14.4c-12.2,8.6-23.1,14.2-33.4,15.7l25.3,25.3l25.9-38.9l1.5-2.3
		C313.4,371.9,312.9,367.2,312.5,362.5L312.5,362.5z M193.7,402.7c-4.9,25.2-12,49.4-19.8,68.3h70.4l-28.2-35.1L193.7,402.7
		L193.7,402.7z M318.3,402.7l-22.4,33.2L267.8,471h70.4C330.4,452.1,323.3,427.9,318.3,402.7z M256,412.7l-19.9,19.9l19.9,24.3
		l19.9-24.3L256,412.7L256,412.7z"/>
</g>
</svg>
